<svg xmlns="http://www.w3.org/2000/svg" width="230" height="40" viewBox="0.333 2.167 230 40" enable-background="new 0.333 2.167 230 40"><g fill="#fff"><path d="M23.28 4.484c-9.75 0-17.683 7.932-17.683 17.681 0 9.751 7.933 17.684 17.683 17.684s17.682-7.933 17.682-17.684c-.001-9.749-7.932-17.681-17.682-17.681zm5.971 24.124c-.148.628-.597 1.107-1.257 1.166-1.346.15-2.664.271-3.98.299v3.593h-1.497v-3.593c-1.646 0-3.292-.089-4.998-.299l.149-1.465c3.292.358 6.405.389 9.667.028.27-.028.479-.21.539-.479.268-1.377.239-2.515 0-3.891-.061-.24-.238-.419-.479-.479l-8.918-1.945c-.629-.149-1.048-.569-1.167-1.167-.42-1.976-.42-3.353 0-5.328.119-.629.568-1.107 1.257-1.167 1.316-.15 2.663-.271 3.95-.3v-3.62h1.497v3.622c1.677 0 3.322.09 5.027.3l-.148 1.466c-3.293-.359-6.405-.389-9.697-.06-.27.03-.449.239-.509.509-.27 1.376-.24 2.513 0 3.891.06.239.239.419.479.479l8.918 1.946c.599.148 1.047.568 1.167 1.166.42 1.975.42 3.352 0 5.328zM23.28 2.897c-10.642 0-19.27 8.627-19.27 19.269 0 10.644 8.628 19.271 19.27 19.271 10.643 0 19.27-8.627 19.27-19.271-.001-10.642-8.628-19.269-19.27-19.269zm0 37.632c-10.141 0-18.362-8.222-18.362-18.363 0-10.14 8.221-18.361 18.362-18.361 10.142 0 18.362 8.221 18.362 18.361 0 10.141-8.221 18.363-18.362 18.363z"/></g><g fill="#fff"><path d="M46.864 35.667v-23.706c0-1.599 2.211-2.075 2.891-.681l7.483 15.781c.136.238.51.238.646 0l7.483-15.781c.68-1.394 2.925-.918 2.925.681v23.706h-1.701v-22.345c0-.136-.204-.17-.272-.034l-7.381 15.476c-.544 1.156-2.21 1.156-2.755 0l-7.38-15.476c-.068-.136-.238-.102-.238.034v22.346h-1.701zM74.408 9.75v4.082h-1.701v-4.082h1.701zm0 7.823v18.094h-1.701v-18.094h1.701zM78.148 35.667v-16.564c0-.815.646-1.428 1.429-1.496 3.673-.442 7.074-.442 10.748 0 .782.068 1.429.68 1.429 1.496v16.564h-1.701v-15.781c0-.341-.238-.646-.612-.681-3.061-.34-5.918-.34-8.979 0-.34.034-.612.34-.612.681v15.781h-1.702zM97.191 17.471c3.537-.306 6.938-.272 10.476.136.782.068 1.429.68 1.429 1.496v16.564h-1.701v-15.781c0-.341-.272-.646-.612-.681-3.231-.34-6.326-.34-9.591-.034v16.496h-1.701v-25.917h1.701v7.721zM113.07 17.573c4.014-.442 7.925-.442 11.905 0 .816.068 1.463.68 1.463 1.53v15.068c0 .815-.646 1.428-1.429 1.496-3.673.477-7.074.442-10.749 0-.782-.068-1.292-.646-1.428-1.395-.442-2.789-.442-4.932 0-7.721.136-.748.714-1.326 1.462-1.395 3.538-.408 6.905-.442 10.443-.102v-5.204c0-.34-.238-.646-.612-.681-3.674-.34-7.211-.34-10.884.068l-.171-1.664zm11.668 9.183c-3.334-.34-6.429-.34-9.728.034-.307.034-.545.271-.578.578-.307 2.177-.307 3.945 0 6.122.033.34.271.544.578.578 3.129.34 5.986.34 9.116 0 .374-.034.612-.34.612-.68v-6.632zM161.361 12.471c-4.796-.408-9.558-.442-14.354-.034-.306.034-.544.272-.578.578-.374 6.836-.374 13.571 0 20.441.034.307.272.544.578.578 4.252.341 8.333.374 12.551 0 .306-.034.544-.271.578-.578.17-2.959.17-5.85 0-8.809-.034-.307-.272-.578-.612-.578h-6.395v-1.701h7.143c.816 0 1.463.681 1.53 1.497.204 3.469.204 6.836 0 10.339-.067.782-.68 1.395-1.462 1.463-4.762.477-9.354.442-14.115 0-.782-.068-1.395-.681-1.429-1.463-.442-7.38-.442-14.557 0-21.938.034-.816.646-1.394 1.429-1.462 5.136-.476 10.17-.476 15.306 0l-.17 1.667zM176.015 19.24c-3.197-.341-5.271-.374-8.333-.068-.34.034-.612.341-.612.681v15.815h-1.7v-16.598c0-.816.646-1.429 1.462-1.497 3.537-.408 5.816-.408 9.354 0l-.171 1.667zM178.461 17.573c4.014-.442 7.925-.442 11.904 0 .816.068 1.463.68 1.463 1.53v15.068c0 .815-.646 1.428-1.429 1.496-3.673.477-7.074.442-10.748 0-.782-.068-1.292-.646-1.428-1.395-.442-2.789-.442-4.932 0-7.721.136-.748.714-1.326 1.462-1.395 3.537-.408 6.904-.442 10.442-.102v-5.204c0-.34-.238-.646-.612-.681-3.674-.34-7.211-.34-10.884.068l-.17-1.664zm11.667 9.183c-3.334-.34-6.429-.34-9.728.034-.307.034-.545.271-.578.578-.307 2.177-.307 3.945 0 6.122.033.34.271.544.578.578 3.129.34 5.985.34 9.115 0 .374-.034.612-.34.612-.68v-6.632zM195.566 35.667v-16.564c0-.815.646-1.428 1.428-1.496 3.674-.442 7.075-.442 10.748 0 .782.068 1.429.68 1.429 1.496v16.564h-1.7v-15.781c0-.341-.238-.646-.612-.681-3.062-.34-5.918-.34-8.979 0-.34.034-.612.34-.612.681v15.781h-1.702zM213.145 17.573c4.014-.442 7.925-.442 11.904 0 .816.068 1.463.68 1.463 1.53v15.068c0 .815-.646 1.428-1.429 1.496-3.673.477-7.074.442-10.748 0-.782-.068-1.292-.646-1.428-1.395-.442-2.789-.442-4.932 0-7.721.136-.748.714-1.326 1.462-1.395 3.537-.408 6.904-.442 10.442-.102v-5.204c0-.34-.238-.646-.612-.681-3.674-.34-7.211-.34-10.884.068l-.17-1.664zm11.667 9.183c-3.334-.34-6.429-.34-9.728.034-.307.034-.545.271-.578.578-.307 2.177-.307 3.945 0 6.122.033.34.271.544.578.578 3.129.34 5.985.34 9.115 0 .374-.034.612-.34.612-.68v-6.632z"/></g></svg>